<svg xmlns="http://www.w3.org/2000/svg" fill="none" viewBox="0 0 93.73 20.81"><path fill="currentColor" d="M0 0h13.82v3.13H4.07v6.09h7.5v3.13h-7.5v8.18H.03V0zm16.71 5.75h3.95V20.5H16.7zm7.55 0h3.63V8.4h.42q.52-1.45 1.51-2.12a4.5 4.5 0 0 1 2.59-.73h2.3v3h-3.92q-1.33.01-1.96.76-.63.76-.62 2.48v8.7h-3.92V5.75zM16.56 0h4.28v3.13h-4.28zm26.3 20.79q-3.45.01-5.38-1.99-1.91-2.01-1.91-5.66t1.9-5.64q1.94-2.01 5.39-2.02c2.3 0 4 .63 5.22 1.86q1.85 1.84 1.85 5.25v1.33h-10.2v.31c0 1.33.25 2.35.75 2.98q.77.94 2.4.94c1.1 0 1.54-.18 1.99-.52q.7-.56.68-1.15v-.1h4.02a6 6 0 0 1-2.38 3.31 7.7 7.7 0 0 1-4.33 1.12zm3.13-9.38q-.11-1.73-.89-2.53-.74-.83-2.27-.84-1.53.02-2.3.84-.75.8-.86 2.53zm7.73-3.05h-2.5V5.77h2.5V2.4q0-1.12.6-1.75.62-.62 1.83-.62h5.95V2.6h-4.44v3.16h4.44v2.59h-4.44V20.5h-3.94zm16.69 12.43q-3.49.01-5.43-1.99-1.96-2.01-1.96-5.66t1.96-5.64q1.97-2.01 5.43-2.02 3.47 0 5.4 2.02 1.96 1.99 1.96 5.64 0 3.62-1.96 5.66-1.92 2-5.4 1.99m0-2.67q1.64.01 2.43-.94.79-.98.8-2.97v-2.17q.01-2-.8-2.95-.8-.97-2.43-.97-1.66 0-2.46.97-.79.95-.8 2.95v2.17c0 1.33.25 2.35.8 2.97q.8.94 2.46.94m12.77-5.22-4.75-7.15h4.1l3.34 5.24h.31l3.34-5.24h3.97l-4.75 7.15 4.99 7.6H89.7l-3.63-5.7h-.32l-3.63 5.7h-3.97l5-7.6z"/></svg>